<svg width="27" height="23" viewBox="0 0 27 23" fill="none" xmlns="http://www.w3.org/2000/svg">
<path d="M27 1.24324V21.7568C27 22.4405 26.4349 23 25.7442 23H9.38721C8.69651 23 8.16279 22.4405 8.16279 21.7568V16.0689C8.16279 15.3851 8.72791 14.8257 9.4186 14.8257C10.1093 14.8257 10.6744 15.3851 10.6744 16.0689V20.5135H24.4884V2.48649H10.6744V6.93108C10.6744 7.61486 10.1093 8.17432 9.4186 8.17432C8.72791 8.17432 8.16279 7.61486 8.16279 6.93108V1.24324C8.16279 0.559459 8.69651 0 9.38721 0H25.7442C26.4349 0 27 0.559459 27 1.24324ZM13.657 15.5095C13.1547 16.0068 13.186 16.7838 13.657 17.2811C13.9081 17.5297 14.2221 17.6541 14.536 17.6541C14.85 17.6541 15.1953 17.5297 15.4151 17.2811L20.3442 12.3703C20.8151 11.873 20.8151 11.0959 20.3442 10.6297L15.4465 5.65676C14.9442 5.15946 14.1593 5.15946 13.657 5.65676C13.1547 6.15405 13.1547 6.93108 13.657 7.42838L16.4512 10.2257L1.25581 10.2568C0.565116 10.2568 0 10.8162 0 11.5C0 12.1838 0.565116 12.7432 1.25581 12.7432L16.4512 12.7122L13.657 15.5095Z" fill="#F0400F"/>
</svg>
